<?xml version="1.0" encoding="UTF-8"?>
<svg xmlns="http://www.w3.org/2000/svg" xmlns:xlink="http://www.w3.org/1999/xlink" width="24px" height="24px" viewBox="0 0 24 24" version="1.1">
<g id="surface1">
<path style=" stroke:none;fill-rule:nonzero;fill:rgb(91.764706%,9.019608%,26.666667%);fill-opacity:1;" d="M 20.640625 7.199219 L 0.898438 7.199219 C 0.402344 7.199219 0 6.796875 0 6.300781 L 0 0.898438 C 0 0.402344 0.402344 0 0.898438 0 L 20.640625 0 C 21.136719 0 21.539062 0.402344 21.539062 0.898438 L 21.539062 6.300781 C 21.539062 6.796875 21.136719 7.199219 20.640625 7.199219 Z M 20.640625 7.199219 "/>
<path style=" stroke:none;fill-rule:nonzero;fill:rgb(1.568627%,90.588235%,38.431373%);fill-opacity:1;" d="M 21.960938 24 L 3.058594 24 C 2.5625 24 2.160156 23.597656 2.160156 23.101562 L 2.160156 17.699219 C 2.160156 17.203125 2.5625 16.800781 3.058594 16.800781 L 21.960938 16.800781 C 22.457031 16.800781 22.859375 17.203125 22.859375 17.699219 L 22.859375 23.101562 C 22.859375 23.597656 22.457031 24 21.960938 24 Z M 21.960938 24 "/>
<path style=" stroke:none;fill-rule:nonzero;fill:rgb(7.843137%,49.019608%,96.078431%);fill-opacity:1;" d="M 17.109375 15.601562 L 7.910156 15.601562 C 7.414062 15.601562 7.011719 15.195312 7.011719 14.699219 L 7.011719 9.300781 C 7.011719 8.804688 7.414062 8.398438 7.910156 8.398438 L 17.109375 8.398438 C 17.605469 8.398438 18.011719 8.804688 18.011719 9.300781 L 18.011719 14.699219 C 18.011719 15.195312 17.605469 15.601562 17.109375 15.601562 Z M 17.109375 15.601562 "/>
</g>
</svg>
